<?xml version="1.0" encoding="UTF-8"?>
<!DOCTYPE svg PUBLIC "-//W3C//DTD SVG 1.1//EN" "http://www.w3.org/Graphics/SVG/1.1/DTD/svg11.dtd">
<!-- Creator: CorelDRAW 2020 (64 Bit) -->
<svg xmlns="http://www.w3.org/2000/svg" xml:space="preserve" width="81px" height="78px" version="1.1" style="shape-rendering:geometricPrecision; text-rendering:geometricPrecision; image-rendering:optimizeQuality; fill-rule:evenodd; clip-rule:evenodd"
viewBox="0 0 81 78"
 xmlns:xlink="http://www.w3.org/1999/xlink"
 xmlns:xodm="http://www.corel.com/coreldraw/odm/2003">
 <defs>
  <style type="text/css">
   <![CDATA[
    .fil3 {fill:black}
    .fil0 {fill:#00ADED}
    .fil1 {fill:#EA008B}
    .fil2 {fill:#FFF100}
   ]]>
  </style>
 </defs>
 <g id="Camada_x0020_1">
  <metadata id="CorelCorpID_0Corel-Layer"/>
  <g id="_2611350315648">
   <path class="fil0" d="M41.827 45.849c-0.764,-15.427 -5.642,-38.384 -20.975,-43.932 -6.258,-2.265 -12.423,-2.228 -17.179,1.626 -2.399,1.943 -3.177,3.635 -3.173,7.997 0.014,14.103 20.481,14.571 26.812,16.723 7.69,2.615 11.134,12.045 14.515,17.586z"/>
   <path class="fil1" d="M42.248 51.748c1.8,-0.805 1.02,-0.829 2.846,-2.296 8.459,-6.799 19.55,-22.085 16.345,-33.442 -0.663,-2.351 -1.693,-4.697 -2.895,-6.423 -5.935,-8.527 -14.458,-5.505 -17.23,-0.366 -5.114,9.479 6.114,21.081 5.621,28.649 -0.427,6.556 -3.426,9.286 -4.687,13.878l0 0z"/>
   <path class="fil2" d="M39.713 55.897c9.498,1.607 17.527,4.377 28.937,0.504 6.822,-2.316 15.009,-10.558 10.609,-19.748 -1.626,-3.396 -7.455,-4.89 -11.855,-2.573 -7.64,4.022 -8.867,14.749 -14.96,18.249 -3.553,2.04 -8.063,2.78 -12.731,3.568z"/>
   <path class="fil3" d="M36.481 59.754c0.346,0.945 2.213,3.283 2.909,4.204 3.113,4.12 2.599,2.614 5.224,5.713 2.97,3.506 11.659,8.518 17.598,7.882 3.581,-0.384 7.495,-2.286 9.575,-5.075 2.468,-3.307 1.756,-14.853 -13.748,-10.516 -7.84,2.193 -9.452,5.684 -21.558,-2.208l0 0z"/>
  </g>
 </g>
</svg>
