<?xml version="1.0" encoding="UTF-8"?>
<!DOCTYPE svg PUBLIC "-//W3C//DTD SVG 1.1//EN" "http://www.w3.org/Graphics/SVG/1.1/DTD/svg11.dtd">
<!-- Creator: CorelDRAW 2020 (64 Bit) -->
<svg xmlns="http://www.w3.org/2000/svg" xml:space="preserve" width="132px" height="132px" version="1.1" style="shape-rendering:geometricPrecision; text-rendering:geometricPrecision; image-rendering:optimizeQuality; fill-rule:evenodd; clip-rule:evenodd"
viewBox="0 0 132 132"
 xmlns:xlink="http://www.w3.org/1999/xlink"
 xmlns:xodm="http://www.corel.com/coreldraw/odm/2003">
 <defs>
  <style type="text/css">
   <![CDATA[
    .fil0 {fill:#666666}
   ]]>
  </style>
 </defs>
 <g id="Camada_x0020_1">
  <metadata id="CorelCorpID_0Corel-Layer"/>
  <path class="fil0" d="M41.877 12.519c15.069,-0.885 26.494,6.2 33.098,17.919 4.671,8.291 5.123,19.29 1.86,28.202 -0.722,1.972 -1.812,4.194 -2.804,5.808 -1.38,2.244 -2.178,3.007 -3.553,4.827 -1.928,2.555 -6.946,6.294 -9.615,7.596 -24.739,12.065 -48.582,-5.113 -50.234,-27.32 -0.401,-5.384 0.268,-10.136 2.024,-14.932 1.093,-2.983 2.674,-5.828 4.474,-8.327 2.638,-3.663 7.378,-7.847 11.496,-9.906 3.891,-1.944 8.292,-3.576 13.254,-3.867zm39.324 61.453c0.707,-1.073 1.495,-1.951 2.247,-3.211 5.673,-9.512 8.047,-19.144 6.513,-30.581 -1.069,-7.978 -5.017,-16.949 -10.041,-22.62l-2.635 -2.887c-4.51,-4.768 -10.206,-8.326 -16.388,-10.767 -11.589,-4.578 -24.596,-3.688 -35.761,1.476 -4.494,2.079 -7.833,4.608 -11.371,7.624 -0.588,0.501 -0.716,0.888 -1.234,1.411 -0.575,0.578 -0.959,0.685 -1.507,1.359 -6.913,8.509 -11.28,16.167 -11.905,28.615 -0.547,10.904 2.719,20.705 8.808,29.261 0.794,1.116 1.594,1.937 2.349,2.953 0.412,0.554 0.982,0.947 1.434,1.431 3.485,3.732 5.816,5.464 10.616,8.377 4.259,2.584 10.477,4.649 16.153,5.453 10.068,1.425 18.322,-0.43 26.997,-4.631 3.622,-1.754 3.902,-2.335 6.612,-4.145l47.647 47.618c6.54,6.474 15.682,-2.529 8.985,-9.205 -2.34,-2.333 -4.513,-4.504 -6.845,-6.841 -4.573,-4.583 -8.995,-8.995 -13.575,-13.575l-27.099 -27.115z"/>
 </g>
</svg>
