<?xml version="1.0" encoding="UTF-8"?>
<!DOCTYPE svg PUBLIC "-//W3C//DTD SVG 1.1//EN" "http://www.w3.org/Graphics/SVG/1.1/DTD/svg11.dtd">
<!-- Creator: CorelDRAW 2020 (64 Bit) -->
<svg xmlns="http://www.w3.org/2000/svg" xml:space="preserve" width="190px" height="270px" version="1.1" style="shape-rendering:geometricPrecision; text-rendering:geometricPrecision; image-rendering:optimizeQuality; fill-rule:evenodd; clip-rule:evenodd"
viewBox="0 0 190 270"
 xmlns:xlink="http://www.w3.org/1999/xlink"
 xmlns:xodm="http://www.corel.com/coreldraw/odm/2003">
 <defs>
  <style type="text/css">
   <![CDATA[
    .fil0 {fill:#333333}
    .fil5 {fill:#34A853}
    .fil2 {fill:#4286F5}
    .fil3 {fill:#EA4235}
    .fil4 {fill:#FABC05}
    .fil1 {fill:white}
   ]]>
  </style>
 </defs>
 <g id="Camada_x0020_1">
  <metadata id="CorelCorpID_0Corel-Layer"/>
  <g id="_2613170098480">
   <rect class="fil0" x="-360.001" y="50" width="250" height="170.001" rx="18.948" ry="18.437"/>
   <g>
    <rect class="fil1" x="-327.406" y="74.674" width="25" height="24.989"/>
    <rect class="fil1" x="-295.444" y="74.674" width="25" height="24.989"/>
    <rect class="fil1" x="-263.482" y="74.674" width="25" height="24.989"/>
    <rect class="fil1" x="-231.519" y="74.674" width="25" height="24.989"/>
    <rect class="fil1" x="-199.557" y="74.674" width="25" height="24.989"/>
    <rect class="fil1" x="-167.595" y="74.674" width="25" height="24.989"/>
    <rect class="fil1" x="-327.406" y="106.353" width="25" height="24.989"/>
    <rect class="fil1" x="-327.406" y="138.031" width="25" height="24.989"/>
    <rect class="fil1" x="-295.444" y="106.353" width="25" height="24.989"/>
    <rect class="fil1" x="-295.444" y="138.031" width="25" height="24.989"/>
    <rect class="fil1" x="-263.482" y="106.353" width="25" height="24.989"/>
    <rect class="fil1" x="-263.482" y="138.031" width="25" height="24.989"/>
    <rect class="fil1" x="-231.519" y="106.353" width="25" height="24.989"/>
    <rect class="fil1" x="-231.519" y="138.031" width="25" height="24.989"/>
    <rect class="fil1" x="-199.557" y="106.353" width="25" height="24.989"/>
    <rect class="fil1" x="-199.557" y="138.031" width="25" height="24.989"/>
    <rect class="fil1" x="-167.595" y="106.353" width="25" height="24.989"/>
    <rect class="fil1" x="-167.595" y="138.031" width="25" height="24.989"/>
    <rect class="fil1" x="-295.444" y="170.337" width="120.887" height="24.989"/>
   </g>
  </g>
  <g id="_2613170097424">
   <path class="fil2" d="M87.114 0.652l-5.158 1.491 -5.71 2.298 0 0.06c-0.967,0.649 -1.748,1.042 -2.63,1.623 -0.861,0.566 -1.61,1.251 -2.584,1.538 -0.348,0.787 -0.32,0.487 -0.98,0.995 -0.095,0.074 -0.486,0.386 -0.596,0.458 -0.383,0.247 -0.246,0.213 -0.663,0.313l-2.868 2.887 -4.953 6.381c-5.902,9.745 -6.25,16.497 -6.19,28.066l-0.003 5.265 0.003 5.352 -0.003 5.265 0.003 5.353 -0.003 5.264 0.003 5.353 -0.003 5.265 0.003 5.352 -0.003 5.265 0.003 5.353 -0.003 5.264 0.003 5.353 -0.003 5.265c0.047,16.869 -1.633,28.855 6.878,41.377 3.108,4.572 7.471,8.864 12.341,11.817 6.011,3.644 10.375,4.831 18.422,5.895l6.651 -0.099c10.044,-1.408 17.588,-4.719 24.325,-11.322 14.072,-13.793 11.952,-28.788 12.042,-47.701l0.009 -5.37 0.007 -5.033 0.021 -67.612c-1.013,-16.295 -10.599,-24.091 -11.04,-25.527 -0.728,-0.421 -0.873,-0.664 -1.512,-1.245 -0.293,-0.266 -0.45,-0.362 -0.718,-0.609 -0.509,-0.468 -0.297,-0.218 -0.659,-0.767 -0.624,-0.384 -0.923,-0.635 -1.485,-1.08 -0.231,-0.183 -0.586,-0.442 -0.73,-0.575 -0.379,-0.35 -0.249,-0.093 -0.353,-0.446 -0.367,-0.15 -4.809,-2.704 -5.277,-3.3 -0.767,-0.06 -2.969,-1.147 -4.349,-1.667l-1.307 -0.701 -4.981 -1.145c-6.557,-0.778 -9.362,-0.888 -15.95,0.031z"/>
   <path class="fil3" d="M162.272 136.927c-0.135,3.347 -0.42,7.549 -1.283,10.643 -1.711,10.646 -8.986,23.177 -14.254,29.348 -2.111,2.471 -5.546,6.328 -8.098,8.374 -5.912,4.739 -7.857,6.735 -16.083,10.721 -10.753,5.209 -23.253,7.454 -36.645,5.626 -6.28,-0.856 -11.681,-2.618 -16.982,-4.809 -2.876,-1.19 -12.518,-6.376 -13.388,-7.896 -1.517,-0.752 -4.362,-2.999 -5.235,-4.36l-0.185 -0.131 -2.748 -2.046c-1.585,2.71 -18.124,17.288 -18.697,19.075 1.492,0.822 2.346,2.236 3.792,3.411 1.306,1.062 2.507,2.126 3.914,3.259 2.674,2.153 5.315,4.03 8.331,5.974 0.768,0.45 1.254,0.734 2.016,1.198 0.852,0.518 1.418,0.688 1.936,1.368 0.782,0.099 5.836,2.851 7.258,3.502 2.54,1.161 5.172,2.221 7.972,3.177 5.802,1.98 11.511,3.462 17.69,4.338l0.364 0.05c7.181,1.368 19.341,1.425 26.677,0.443l4.985 -0.832 1.958 -0.439 3.38 -0.826 5.606 -1.536c0.486,-0.367 5.586,-2.084 6.728,-2.564 32.844,-13.796 56.424,-45.238 57.796,-82.653l-0.066 -3.886 -1.134 0.006 -5.199 0.006 -5.287 0.001 -5.33 -0.001 -5.287 0.001 -4.425 0.021 -0.077 1.437z"/>
   <path class="fil4" d="M28.674 201.472c0.573,-1.787 17.112,-16.365 18.697,-19.075 -0.859,-0.623 -2.427,-2.246 -2.678,-3.016 -1.123,-0.423 -4.165,-4.695 -4.541,-5.53 -0.428,-0.183 -0.29,-0.157 -0.664,-0.659l-4.268 -6.895c-4.023,-7.652 -6.455,-16.035 -7.074,-24.828 -0.126,-1.794 -0.071,-4.286 -0.348,-5.986l-4.407 -0.01 -5.249 0 -5.369 0 -5.248 0 -6.498 -0.005c-0.833,11.72 3.438,27.971 8.171,38.537 3.206,7.158 7.602,13.886 12.366,19.753 0.544,0.668 0.618,0.828 1.306,1.61 1.016,1.155 4.643,5.62 5.804,6.104z"/>
   <path class="fil5" d="M108.64 269.928l-0.017 -0.186 -0.005 -5.369 0 -5.352 0 -5.265 0 -5.353 0 -5.265 0 -5.352 0 -5.265 0.006 -4.329c-7.336,0.982 -19.496,0.925 -26.677,-0.443l-0.088 42.251 26.781 -0.072z"/>
  </g>
 </g>
</svg>
