<?xml version="1.0" encoding="UTF-8"?>
<!DOCTYPE svg PUBLIC "-//W3C//DTD SVG 1.1//EN" "http://www.w3.org/Graphics/SVG/1.1/DTD/svg11.dtd">
<!-- Creator: CorelDRAW 2020 (64 Bit) -->
<svg xmlns="http://www.w3.org/2000/svg" xml:space="preserve" width="250px" height="170px" version="1.1" style="shape-rendering:geometricPrecision; text-rendering:geometricPrecision; image-rendering:optimizeQuality; fill-rule:evenodd; clip-rule:evenodd"
viewBox="0 0 250 169.999"
 xmlns:xlink="http://www.w3.org/1999/xlink"
 xmlns:xodm="http://www.corel.com/coreldraw/odm/2003">
 <defs>
  <style type="text/css">
   <![CDATA[
    .fil5 {fill:#34A853}
    .fil2 {fill:#4286F5}
    .fil0 {fill:#666666}
    .fil3 {fill:#EA4235}
    .fil4 {fill:#FABC05}
    .fil1 {fill:white}
   ]]>
  </style>
 </defs>
 <g id="Camada_x0020_1">
  <metadata id="CorelCorpID_0Corel-Layer"/>
  <g id="_2611343025472">
   <rect class="fil0" x="-0.001" width="250" height="170.001" rx="18.948" ry="18.437"/>
   <g>
    <rect class="fil1" x="32.594" y="24.674" width="25" height="24.989"/>
    <rect class="fil1" x="64.556" y="24.674" width="25" height="24.989"/>
    <rect class="fil1" x="96.519" y="24.674" width="25" height="24.989"/>
    <rect class="fil1" x="128.481" y="24.674" width="25" height="24.989"/>
    <rect class="fil1" x="160.443" y="24.674" width="25" height="24.989"/>
    <rect class="fil1" x="192.406" y="24.674" width="25" height="24.989"/>
    <rect class="fil1" x="32.594" y="56.352" width="25" height="24.989"/>
    <rect class="fil1" x="32.594" y="88.031" width="25" height="24.989"/>
    <rect class="fil1" x="64.556" y="56.352" width="25" height="24.989"/>
    <rect class="fil1" x="64.556" y="88.031" width="25" height="24.989"/>
    <rect class="fil1" x="96.519" y="56.352" width="25" height="24.989"/>
    <rect class="fil1" x="96.519" y="88.031" width="25" height="24.989"/>
    <rect class="fil1" x="128.481" y="56.352" width="25" height="24.989"/>
    <rect class="fil1" x="128.481" y="88.031" width="25" height="24.989"/>
    <rect class="fil1" x="160.443" y="56.352" width="25" height="24.989"/>
    <rect class="fil1" x="160.443" y="88.031" width="25" height="24.989"/>
    <rect class="fil1" x="192.406" y="56.352" width="25" height="24.989"/>
    <rect class="fil1" x="192.406" y="88.031" width="25" height="24.989"/>
    <rect class="fil1" x="64.556" y="120.337" width="120.887" height="24.989"/>
   </g>
  </g>
  <path class="fil2" d="M444.498 -49.35l-5.139 1.486 -5.691 2.29 0 0.06c-0.964,0.647 -1.742,1.038 -2.621,1.617 -0.859,0.564 -1.605,1.247 -2.576,1.533 -0.347,0.784 -0.319,0.485 -0.976,0.992 -0.096,0.073 -0.485,0.385 -0.595,0.456 -0.381,0.246 -0.245,0.212 -0.66,0.312l-2.859 2.877 -4.936 6.36c-5.882,9.712 -6.228,16.441 -6.169,27.971l-0.003 5.246 0.003 5.335 -0.003 5.247 0.003 5.335 -0.003 5.246 0.003 5.335 -0.003 5.247 0.003 5.334 -0.003 5.247 0.003 5.334 -0.003 5.247 0.003 5.335 -0.003 5.247c0.047,16.812 -1.628,28.757 6.855,41.237 3.097,4.557 7.446,8.835 12.299,11.777 5.99,3.631 10.34,4.815 18.36,5.875l6.628 -0.099c10.01,-1.403 17.528,-4.703 24.243,-11.284 14.024,-13.746 11.911,-28.69 12.001,-47.539l0.009 -5.351 0.007 -5.017 0.02 -67.382c-1.009,-16.24 -10.562,-24.01 -11.002,-25.44 -0.726,-0.421 -0.87,-0.663 -1.507,-1.242 -0.292,-0.265 -0.448,-0.361 -0.715,-0.607 -0.507,-0.466 -0.296,-0.217 -0.657,-0.764 -0.622,-0.383 -0.92,-0.634 -1.48,-1.077 -0.231,-0.182 -0.584,-0.44 -0.727,-0.573 -0.378,-0.349 -0.249,-0.092 -0.352,-0.444 -0.366,-0.15 -4.793,-2.695 -5.259,-3.289 -0.765,-0.059 -2.959,-1.143 -4.335,-1.662l-1.302 -0.698 -4.964 -1.141c-6.535,-0.775 -9.33,-0.885 -15.897,0.031z"/>
  <path class="fil3" d="M519.402 86.463c-0.134,3.336 -0.419,7.524 -1.279,10.607 -1.704,10.61 -8.955,23.099 -14.206,29.249 -2.103,2.462 -5.526,6.307 -8.07,8.346 -5.891,4.723 -7.83,6.712 -16.029,10.684 -10.716,5.192 -23.173,7.429 -36.52,5.608 -6.259,-0.854 -11.642,-2.61 -16.924,-4.794 -2.868,-1.186 -12.477,-6.354 -13.343,-7.869 -1.512,-0.749 -4.347,-2.989 -5.218,-4.345l-0.184 -0.13 -2.739 -2.04c-1.579,2.701 -18.062,17.23 -18.634,19.011 1.487,0.819 2.338,2.228 3.78,3.399 1.302,1.059 2.498,2.119 3.9,3.248 2.666,2.146 5.298,4.017 8.304,5.954 0.764,0.449 1.249,0.732 2.008,1.194 0.85,0.517 1.413,0.685 1.929,1.364 0.78,0.098 5.817,2.841 7.234,3.489 2.532,1.157 5.155,2.214 7.946,3.167 5.781,1.973 11.471,3.45 17.629,4.323l0.364 0.05c7.156,1.363 19.275,1.42 26.586,0.441l4.968 -0.828 1.952 -0.438 3.367 -0.823 5.587 -1.531c0.485,-0.367 5.568,-2.077 6.706,-2.555 32.733,-13.75 56.233,-45.086 57.601,-82.374l-0.067 -3.873 -1.13 0.007 -5.181 0.005 -5.269 0.001 -5.312 -0.001 -5.269 0.001 -4.41 0.021 -0.077 1.432z"/>
  <path class="fil4" d="M386.256 150.79c0.572,-1.781 17.055,-16.31 18.634,-19.011 -0.856,-0.62 -2.419,-2.238 -2.668,-3.005 -1.12,-0.422 -4.151,-4.68 -4.527,-5.512 -0.425,-0.182 -0.288,-0.156 -0.661,-0.657l-4.254 -6.871c-4.009,-7.627 -6.432,-15.981 -7.05,-24.744 -0.125,-1.788 -0.071,-4.271 -0.346,-5.965l-4.393 -0.01 -5.231 -0.001 -5.35 0.001 -5.231 -0.001 -6.475 -0.005c-0.831,11.681 3.426,27.876 8.143,38.407 3.195,7.133 7.576,13.839 12.324,19.685 0.541,0.667 0.616,0.826 1.301,1.605 1.013,1.151 4.627,5.601 5.784,6.084z"/>
  <path class="fil5" d="M465.952 219.014l-0.017 -0.185 -0.006 -5.351 0 -5.335 0 -5.247 0 -5.334 0 -5.247 0 -5.334 0 -5.247 0.007 -4.315c-7.311,0.979 -19.43,0.922 -26.586,-0.441l-0.088 42.108 26.69 -0.072z"/>
 </g>
</svg>
